<svg xmlns="http://www.w3.org/2000/svg" viewBox="0 0 500 500"><g id="freepik--background-complete--inject-2"><path d="M87.59,239.56l-13.12.27-6.66.12c-2.23,0-4.47,0-6.7.05h-.44v-.44l-.06-11.19v-.51h.5l13.24.06c4.42,0,8.83.11,13.24.16h.28v.27c0,1.89-.09,3.78-.13,5.65Zm0,0-.14-5.66c0-1.86-.11-3.7-.13-5.53l.27.27c-4.41.05-8.82.16-13.24.16l-13.24.07.5-.5,0,11.19-.45-.45c2.18,0,4.36,0,6.55,0l6.58.12Z" style="fill:#ebebeb"></path><path d="M72.82,253.67l-13.12.27-6.66.12c-2.23,0-4.47,0-6.7.05H45.9v-.44l-.06-11.19V242h.5l13.24.06c4.41,0,8.83.11,13.24.16h.28v.27c0,1.89-.08,3.78-.13,5.65Zm0,0L72.68,248c-.05-1.86-.11-3.7-.13-5.53l.27.27c-4.41.05-8.83.16-13.24.16L46.34,243l.5-.49-.05,11.19-.45-.45c2.18,0,4.36,0,6.55.05l6.58.12Z" style="fill:#ebebeb"></path><path d="M363.58,360.91l-13.12.27-6.66.12c-2.23,0-4.47,0-6.7.05h-.44v-.44l-.06-11.19v-.51h.5l13.24.06c4.42,0,8.83.11,13.24.16h.28v.27c0,1.89-.09,3.78-.14,5.65Zm0,0-.14-5.66c0-1.86-.11-3.7-.13-5.53l.27.27c-4.41.05-8.82.16-13.24.16l-13.24.07.5-.5-.05,11.19-.45-.45c2.18,0,4.36,0,6.55.05l6.58.12Z" style="fill:#ebebeb"></path><path d="M348.81,375l-13.12.27-6.67.12c-2.22,0-4.46,0-6.69,0h-.44V375l-.05-11.19v-.51h.5l13.24.06c4.41,0,8.83.11,13.24.16h.28v.27c0,1.89-.08,3.78-.13,5.65Zm0,0-.14-5.66c-.05-1.86-.11-3.7-.13-5.53l.27.27c-4.41,0-8.83.16-13.24.16l-13.24.07.5-.5L322.78,375l-.45-.45c2.18,0,4.36,0,6.55.05l6.57.12Z" style="fill:#ebebeb"></path><path d="M453.66,253.67l-13.13.27-6.66.12c-2.22,0-4.46,0-6.69.05h-.45v-.44l-.05-11.19V242h.5l13.24.06c4.41,0,8.83.11,13.24.16h.27v.27c0,1.89-.08,3.78-.13,5.65Zm0,0-.14-5.66c0-1.86-.12-3.7-.13-5.53l.27.27c-4.41.05-8.83.16-13.24.16l-13.24.06.5-.49-.06,11.19-.44-.45c2.18,0,4.36,0,6.54.05l6.58.12Z" style="fill:#ebebeb"></path><path d="M438.89,55.2l-13.13.28-6.66.11c-2.22,0-4.46,0-6.69.06H412V55.2l0-11.19v-.5h.51l13.24.06c4.41,0,8.82.12,13.24.17h.27V44c0,1.9-.09,3.79-.13,5.65Zm0,0-.14-5.65c-.05-1.87-.12-3.71-.14-5.54l.28.27c-4.42,0-8.83.16-13.24.17l-13.24.06.5-.5-.06,11.19-.44-.45c2.18,0,4.35,0,6.54.06l6.58.11Z" style="fill:#ebebeb"></path><path d="M453.66,69.31l-13.13.28-6.66.11c-2.22,0-4.46,0-6.69.06h-.45v-.45l-.05-11.19v-.5h.5l13.24.06c4.41,0,8.83.12,13.24.17h.27v.27c0,1.9-.08,3.79-.13,5.65Zm0,0-.14-5.65c0-1.87-.12-3.71-.13-5.54l.27.27c-4.41,0-8.83.16-13.24.17l-13.24.06.5-.5-.06,11.19-.44-.45c2.18,0,4.36,0,6.54.06l6.58.11Z" style="fill:#ebebeb"></path><path d="M87.59,55.2l-13.12.28-6.66.11c-2.23,0-4.47,0-6.7.06h-.44V55.2L60.61,44v-.5h.5l13.24.06c4.42,0,8.83.12,13.24.17h.28V44c0,1.9-.09,3.79-.13,5.65Zm0,0-.14-5.65c0-1.87-.11-3.71-.13-5.54l.27.27c-4.41,0-8.82.16-13.24.17l-13.24.06.5-.5,0,11.19-.45-.45c2.18,0,4.36,0,6.55.06l6.58.11Z" style="fill:#ebebeb"></path><path d="M240.33,178.26l-13.12.27-6.66.12c-2.23,0-4.47,0-6.7,0h-.44v-.44l-.05-11.19v-.51h.5l13.24.06c4.41,0,8.83.11,13.24.16h.28v.27c0,1.89-.08,3.78-.13,5.65Zm0,0-.14-5.66c-.05-1.86-.11-3.7-.13-5.53l.27.27c-4.41,0-8.83.16-13.24.16l-13.24.07.5-.5,0,11.19-.45-.45c2.18,0,4.36,0,6.55.06L227,178Z" style="fill:#ebebeb"></path><rect x="48.07" y="66.68" width="52.36" height="63.51" style="fill:#ebebeb"></rect><rect x="54.06" y="72.47" width="40.39" height="51.92" style="fill:#fff"></rect><rect x="54.06" y="72.47" width="1.58" height="51.92" style="fill:#dbdbdb"></rect><rect x="100.43" y="66.68" width="1.58" height="63.51" style="fill:#dbdbdb"></rect><rect x="67.59" y="79.63" width="9.52" height="28.38" style="fill:#dbdbdb"></rect><path d="M89.33,113.35H62.94V98.45H89.33Zm-25.39-1H88.33V99.45H63.94Z" style="fill:#ebebeb"></path><rect x="48.07" y="148" width="52.36" height="63.51" style="fill:#ebebeb"></rect><rect x="54.06" y="153.8" width="40.39" height="51.92" style="fill:#fff"></rect><rect x="54.06" y="153.8" width="1.58" height="51.92" style="fill:#dbdbdb"></rect><rect x="100.43" y="148" width="1.58" height="63.51" style="fill:#dbdbdb"></rect><rect x="70.34" y="167.22" width="8.16" height="20.63" style="fill:#ebebeb"></rect><path d="M87.59,194.48H64.67V179.26H87.59Zm-21.92-1H86.59V180.26H65.67Z" style="fill:#dbdbdb"></path><polygon points="273.17 371.4 448.9 371.4 452.56 299.3 269.51 299.3 273.17 371.4" style="fill:#ebebeb"></polygon><path d="M440.57,332.3H367.1l-1.37-25h76.45Zm-72.63-.88h71.8l1.5-23.26H366.66Z" style="fill:#dbdbdb"></path><path d="M439.22,361.1H370l-1.12-22.59h71.77Zm-68.4-.88h67.56l1.31-20.83h-69.9Z" style="fill:#dbdbdb"></path><path d="M410.91,322.5H398.57l-.78-6h13.9Zm-11.56-.89h10.78l.55-4.26H398.8Z" style="fill:#dbdbdb"></path><path d="M410.91,352.82H398.57l-.78-6h13.9Zm-11.56-.88h10.78l.55-4.27H398.8Z" style="fill:#dbdbdb"></path><path d="M354.15,332.3H280.68l-1.37-25h76.45Zm-72.63-.88h71.8l1.5-23.26H280.24Z" style="fill:#dbdbdb"></path><path d="M352.8,361.1H283.56l-1.12-22.59h71.77Zm-68.39-.88H352l1.3-20.83h-69.9Z" style="fill:#dbdbdb"></path><path d="M324.49,322.5H312.15l-.78-6h13.9Zm-11.56-.89h10.78l.55-4.26H312.38Z" style="fill:#dbdbdb"></path><path d="M324.49,352.82H312.15l-.78-6h13.9Zm-11.56-.88h10.78l.55-4.27H312.38Z" style="fill:#dbdbdb"></path><polygon points="288.93 371.4 287.82 379.26 285.6 395.04 281.26 395.04 281.26 371.4 288.93 371.4" style="fill:#ebebeb"></polygon><polygon points="288.93 371.4 287.82 379.26 281.26 379.26 281.26 371.4 288.93 371.4" style="fill:#dbdbdb"></polygon><polygon points="433.14 371.4 434.25 379.26 436.47 395.04 440.81 395.04 440.81 371.4 433.14 371.4" style="fill:#ebebeb"></polygon><polygon points="433.14 371.4 434.25 379.26 440.81 379.26 440.81 371.4 433.14 371.4" style="fill:#dbdbdb"></polygon></g><g id="freepik--Plant--inject-2"><polygon points="441.46 147.01 421.51 54.92 403.07 147.01 402.19 146.88 421.48 50.58 442.34 146.87 441.46 147.01" style="fill:#dbdbdb"></polygon><polygon points="436.13 239.01 421.72 186.12 408.4 239 407.54 238.78 421.69 182.61 436.98 238.77 436.13 239.01" style="fill:#dbdbdb"></polygon><path d="M423.32,52.25a1.83,1.83,0,1,1-1.83-1.83A1.82,1.82,0,0,1,423.32,52.25Z" style="fill:#a6a6a6"></path><polygon points="441.19 244.9 440.53 253.53 438.97 274.07 405.88 274.07 404.32 253.53 403.66 244.9 441.19 244.9" style="fill:#2747FF"></polygon><polygon points="441.19 244.9 440.53 253.53 404.32 253.53 403.66 244.9 441.19 244.9" style="opacity:0.1"></polygon><rect x="401.39" y="242.14" width="42.06" height="6.7" style="fill:#2747FF"></rect><path d="M444.6,240.75a2,2,0,0,1-2.24,1.85,2.15,2.15,0,0,1-2.41.7,2.43,2.43,0,0,1-2.41,1.43,2.47,2.47,0,0,1-1.43,3,1.52,1.52,0,0,1-1.58,1.08,2.53,2.53,0,0,1-1.86-1.29,1.92,1.92,0,0,1-2.83.25,1.58,1.58,0,0,1-.34-1.71,2.58,2.58,0,0,1-.37-.24,2.39,2.39,0,0,1-.65-2,2.32,2.32,0,0,1-1.72,0,1.32,1.32,0,0,1-1.19,1,2.35,2.35,0,0,1-.4,2.11,2.46,2.46,0,0,1-2.15.81c.24,1.13.29,2.42-.74,3.17a1.65,1.65,0,0,1-1.69.16,2.14,2.14,0,0,1-2.65,1.67,2.78,2.78,0,0,1-.25,2,1.91,1.91,0,0,1-1.42.91c0,1.1-.48,2.31-1.77,2.29a1.3,1.3,0,0,1-1.22-1.58,1.63,1.63,0,0,1-.84-2.71,2.36,2.36,0,0,1,0-3.72,1.55,1.55,0,0,1,.07-2.28,2.08,2.08,0,0,1-.76-1.66,2.31,2.31,0,0,1,1.2-1.84,1,1,0,0,1-.58-.58.84.84,0,0,1,0-.18,1.53,1.53,0,0,1-1.22,0,1.38,1.38,0,0,1-.61-.56,2.52,2.52,0,0,1-2.41.6,2,2,0,0,1-3.11.63c-.76.68-1.79,1.34-2.78.72a1.25,1.25,0,0,1-.57-1.12,1.37,1.37,0,0,1-1.25-.74,1.3,1.3,0,0,1,.35-1.59,1.19,1.19,0,0,1-.47-.72,1.44,1.44,0,0,1,1.41-1.61,2,2,0,0,1,.4-2,2.91,2.91,0,0,1,2.36-.84,2.56,2.56,0,0,1,1.25-2.65,2.07,2.07,0,0,1,2.56.61,3.32,3.32,0,0,1,5.28-.33,1.65,1.65,0,0,1,2.06-.85,2.72,2.72,0,0,1,1.55,2.71,3.22,3.22,0,0,1,3.3.26,3.3,3.3,0,0,1,1.26,2.74,2.88,2.88,0,0,1,3.09.18,6.39,6.39,0,0,1,3.29-2.51,3.14,3.14,0,0,1,2.68.57,3.66,3.66,0,0,1,6.68-.84,2.57,2.57,0,0,1,2.72-.36,4.85,4.85,0,0,1,2.39,3.13A2,2,0,0,1,444.6,240.75Z" style="fill:#455a64"></path><polygon points="447.5 149.46 446.62 161 444.54 188.44 400.31 188.44 398.23 161 397.35 149.46 447.5 149.46" style="fill:#2747FF"></polygon><polygon points="447.5 149.46 446.62 161 398.23 161 397.35 149.46 447.5 149.46" style="opacity:0.1"></polygon><rect x="394.32" y="145.77" width="56.21" height="8.95" style="fill:#2747FF"></rect><path d="M449.25,148a3.26,3.26,0,0,1,.68,3.06,6,6,0,0,1-3.43,3.08,3.68,3.68,0,0,1-1.23,5.39c1.34,1.57,1.89,3.35.16,4.51a4,4,0,0,1-1.22,5.74c.38,1.24-.82,4.94-3.36,4.93a2.68,2.68,0,0,1-2.33-4,3.15,3.15,0,0,1-.72-5s-1.57.34-2.32-.46a2.16,2.16,0,0,1-.13-2.12,3.58,3.58,0,0,1,.82-5.23,3,3,0,0,1,0-4.44,4.15,4.15,0,0,1-1.75-1.49c-1.28.61-2.05.07-2.76-1.14a3,3,0,0,1-3.21.84,3.53,3.53,0,0,1-5.18,2.09,4.89,4.89,0,0,1-1,2.63c-.18.24-.39.42-.59.64a4.78,4.78,0,0,0-.56.93,4.43,4.43,0,0,1-1.17,1.34,2.21,2.21,0,0,1-2.92-.12,1.65,1.65,0,0,1-.26-1.73,2.25,2.25,0,0,1-1.41-2.85,2.75,2.75,0,0,1-2.69-1.57,2.87,2.87,0,0,1-2.21,1.11,3.25,3.25,0,0,1-1.85,4.08,3.34,3.34,0,0,1-1.43,4.76,2.35,2.35,0,0,1-.69,3.12,3,3,0,0,1-.11,2.68,1.94,1.94,0,0,1-1.82.88,1.44,1.44,0,0,1-.87-2.15,3.62,3.62,0,0,1-1.3-6,3,3,0,0,1-1.75-4.49,2.93,2.93,0,0,1-1.68-4.74,1.77,1.77,0,0,1-1.6-.59,1.61,1.61,0,0,1-.33-1,2.29,2.29,0,0,1-2.47-1.08,2.23,2.23,0,0,1,.45-2.6,1.9,1.9,0,0,1-1.26-1.36,1.76,1.76,0,0,1,.14-1.14,2.2,2.2,0,0,1-2.63-1.86,1.78,1.78,0,0,1,1.2-1.86,2.11,2.11,0,0,1-.17-1.43c.33-1.37,1.91-1.79,3.16-1.94a2.81,2.81,0,0,1,3.12-3.68,2.89,2.89,0,0,1,1.35-2.69,2.77,2.77,0,0,1,3,.23H403a3.42,3.42,0,0,1,2.89,3.32,3.5,3.5,0,0,1,3.34,0,4.9,4.9,0,0,1,2.31,3.4,4,4,0,0,1,6.4.83,3.65,3.65,0,0,1,6.3,2.07,9.09,9.09,0,0,1,8.51-1.67,4,4,0,0,1,6-1.91,4,4,0,0,1,4.13-2.43c2.1.21,3.64,1.9,4.5,3.73A4,4,0,0,1,451,144,2.94,2.94,0,0,1,449.25,148Z" style="fill:#455a64"></path></g></svg>